<?xml version="1.0" standalone="no"?>
<!DOCTYPE svg PUBLIC "-//W3C//DTD SVG 20010904//EN" "http://www.w3.org/TR/2001/REC-SVG-20010904/DTD/svg10.dtd">
<svg version="1.0" xmlns="http://www.w3.org/2000/svg" width="260.000000pt" height="260.000000pt"
  viewBox="0 0 260.000000 260.000000" preserveAspectRatio="xMidYMid meet">
  <metadata>
    Created by potrace 1.14, written by Peter Selinger 2001-2017
  </metadata>
  <g transform="translate(0.000000,260.000000) scale(0.100000,-0.100000)" fill="#000000" stroke="none">
    <path d="M546 1805 c-81 -29 -137 -113 -141 -214 -4 -112 55 -223 191 -357 90
-89 102 -116 57 -131 -16 -5 -169 -8 -340 -8 l-313 1 0 -153 0 -153 453 0
c489 0 508 2 587 54 68 45 103 160 77 256 -10 41 -58 139 -84 172 -10 13 -55
60 -100 106 -125 125 -118 135 105 136 138 1 172 -4 172 -26 0 -7 34 -114 76
-238 41 -124 76 -229 77 -235 2 -5 18 -58 37 -117 l34 -108 167 0 168 0 14 53
c8 28 32 123 53 210 21 86 41 157 44 157 3 0 20 -53 39 -118 19 -64 48 -159
63 -209 l29 -93 167 0 167 0 68 273 c38 149 70 281 73 292 5 27 103 425 110
448 5 16 -6 17 -162 15 l-168 -3 -8 -36 c-4 -20 -9 -49 -12 -64 -20 -112 -72
-325 -78 -325 -4 0 -8 6 -8 12 0 7 -29 104 -65 215 l-66 203 -154 0 c-138 0
-154 -2 -159 -17 -3 -10 -28 -101 -56 -203 -28 -102 -53 -192 -56 -200 -5 -13
-56 114 -69 174 -3 11 -19 63 -37 115 -33 98 -35 104 -37 121 -1 7 -154 10
-438 10 -346 -1 -446 -4 -477 -15z" />
  </g>
</svg>
